<svg xmlns="http://www.w3.org/2000/svg" viewBox="0 0 1600 900" role="img" aria-labelledby="title desc">
  <title id="title">CAD/CAE 生态周报封面</title>
  <desc id="desc">深蓝色工程网格、参数化零件线框、网格单元和分析云图组成的技术插画。</desc>
  <defs>
    <linearGradient id="bg" x1="0" y1="0" x2="1" y2="1">
      <stop offset="0" stop-color="#071526"/>
      <stop offset="0.55" stop-color="#123a5b"/>
      <stop offset="1" stop-color="#0b6d78"/>
    </linearGradient>
    <radialGradient id="heat" cx="50%" cy="48%" r="52%">
      <stop offset="0" stop-color="#ffcf5a" stop-opacity=".95"/>
      <stop offset=".32" stop-color="#ff7043" stop-opacity=".82"/>
      <stop offset=".68" stop-color="#2fc7d5" stop-opacity=".55"/>
      <stop offset="1" stop-color="#123a5b" stop-opacity="0"/>
    </radialGradient>
    <pattern id="grid" width="50" height="50" patternUnits="userSpaceOnUse">
      <path d="M50 0H0V50" fill="none" stroke="#b9e7ff" stroke-opacity=".12" stroke-width="1"/>
    </pattern>
    <filter id="glow"><feGaussianBlur stdDeviation="7" result="b"/><feMerge><feMergeNode in="b"/><feMergeNode in="SourceGraphic"/></feMerge></filter>
  </defs>
  <rect width="1600" height="900" fill="url(#bg)"/>
  <rect width="1600" height="900" fill="url(#grid)"/>
  <circle cx="1170" cy="430" r="330" fill="url(#heat)"/>
  <g fill="none" stroke="#c9f4ff" stroke-width="5" stroke-linejoin="round" opacity=".92">
    <path d="M850 245 1190 120l255 175-337 135z"/>
    <path d="m850 245 9 350 343 185 243-150V295"/>
    <path d="m1108 430 94 350M1190 120l12 660M859 595l249-165 337 200"/>
    <path d="M850 245 1108 430l337-135"/>
  </g>
  <g fill="none" stroke="#68d8e8" stroke-width="2" opacity=".65">
    <path d="m850 330 342-125 253 174-337 136zM854 420l338-129 253 174-337 137zM856 510l340-132 249 174-337 140z"/>
    <path d="m935 214 8 427m83-458 9 505m82-535 8 580m153-571 5 529m80-477 2 427"/>
  </g>
  <g fill="#d8f8ff" filter="url(#glow)">
    <circle cx="850" cy="245" r="8"/><circle cx="1190" cy="120" r="8"/><circle cx="1445" cy="295" r="8"/>
    <circle cx="859" cy="595" r="8"/><circle cx="1202" cy="780" r="8"/><circle cx="1445" cy="630" r="8"/>
    <circle cx="1108" cy="430" r="8"/>
  </g>
  <g transform="translate(115 520)" fill="none" stroke="#8ee8f3" stroke-width="4">
    <circle cx="84" cy="84" r="64"/><circle cx="84" cy="84" r="26"/>
    <path d="M84 0v28M84 140v28M0 84h28M140 84h28M25 25l20 20M123 123l20 20M143 25l-20 20M45 123l-20 20"/>
    <path d="M250 25h280M250 80h230M250 135h315" opacity=".75"/>
  </g>
</svg>
